<svg width="151" height="212" viewBox="0 0 151 212" fill="none" xmlns="http://www.w3.org/2000/svg">
<path fill-rule="evenodd" clip-rule="evenodd" d="M69.837 95.7073C69.837 95.7073 69.837 95.7073 69.837 95.7073L69.8663 95.7337L69.9581 95.816C70.0395 95.8889 70.1608 95.9971 70.3187 96.1372C70.6344 96.4173 71.096 96.8243 71.6763 97.3289C72.8375 98.3386 74.4717 99.7374 76.3623 101.292C80.163 104.417 84.9266 108.111 88.949 110.559C94.6917 114.053 101.218 114.984 107.582 111.489C112.099 109.007 114.368 103.848 113.453 98.6438C112.907 95.5369 110.618 92.5195 107.77 90.6024C104.77 88.5824 100.819 88.6571 97.6125 90.6829C94.2978 92.777 92.7109 96.5291 93.9829 99.5317C94.6349 101.071 96.0801 102.215 97.8276 102.682C99.575 103.149 101.409 102.88 102.758 101.871C103.627 101.222 104.858 101.397 105.507 102.264C106.156 103.13 105.977 104.36 105.108 105.01C102.641 106.854 99.5202 107.197 96.8042 106.472C94.0883 105.746 91.5616 103.894 90.3642 101.067C88.1074 95.7397 91.1472 90.1303 95.5175 87.3692C99.9046 84.5976 105.55 84.371 109.972 87.3483C113.459 89.696 116.547 93.5465 117.323 97.9567C118.501 104.66 115.596 111.559 109.469 114.925C101.603 119.246 93.5566 117.961 86.8992 113.91C82.629 111.312 77.6898 107.471 73.8608 104.322C71.9365 102.74 70.2741 101.317 69.0924 100.29C68.5013 99.7758 68.03 99.3602 67.7055 99.0723C67.5433 98.9284 67.4177 98.8164 67.3323 98.7399L67.2347 98.6524L67.2006 98.6217C67.2004 98.6216 67.1998 98.621 68.5184 97.1641L67.1998 98.621C66.3957 97.8956 66.3342 96.6554 67.0625 95.8508C67.7907 95.0463 69.0329 94.982 69.837 95.7073Z" fill="#A5A8AD"/>
<path d="M40.4142 72.9434C43.9009 66.2382 50.83 62.0314 58.3876 62.0314H60.9041C74.5973 62.0314 84.4835 75.1377 80.7217 88.3041V88.3041C77.5945 99.2491 66.1869 105.587 55.2419 102.46L52.8222 101.768C40.4998 98.2475 34.5017 84.3134 40.4142 72.9434V72.9434Z" fill="#C4C4C4"/>
<rect width="31.6283" height="13.1687" rx="6" transform="matrix(-0.814941 0.579544 0.579544 0.814941 85.0009 78.4771)" fill="#A5A8AD"/>
<rect width="24.2353" height="10.0906" rx="5.04528" transform="matrix(-0.814941 0.579544 0.579544 0.814941 80.998 66.6253)" fill="#A5A8AD"/>
<path fill-rule="evenodd" clip-rule="evenodd" d="M115.565 11.8539L123.648 15.5232L121.813 19.5644L117.772 17.7298C121.813 19.5644 121.813 19.565 121.812 19.5657L121.808 19.5741L121.799 19.5954L121.764 19.672C121.733 19.7379 121.689 19.8335 121.632 19.9571C121.517 20.2044 121.349 20.5641 121.131 21.0243C120.694 21.9444 120.055 23.2671 119.239 24.896C117.608 28.1511 115.263 32.6428 112.403 37.5957C106.751 47.3809 98.8313 59.4217 90.2092 67.0916C86.255 70.6091 82.017 72.5295 78.5989 74.0783C78.0173 74.3418 77.4595 74.5946 76.9308 74.8426C73.2233 76.5822 70.4692 78.2335 68.2532 81.6997C65.1978 86.4788 64.5538 90.8247 64.8489 95.736C65.0021 98.287 65.4065 100.947 65.8913 103.98C65.9271 104.204 65.9633 104.43 65.9997 104.657C66.4484 107.455 66.9416 110.532 67.2663 113.824L67.702 118.241L58.8686 119.112L58.4329 114.695C58.1358 111.682 57.6833 108.858 57.2289 106.022C57.1947 105.808 57.1604 105.595 57.1263 105.381C56.6473 102.385 56.1716 99.3159 55.9885 96.2682C55.6109 89.9821 56.4697 83.6521 60.7747 76.9185C64.3526 71.322 68.9528 68.7811 73.1604 66.8069C73.8343 66.4907 74.4878 66.192 75.1241 65.9011C78.5282 64.3448 81.4369 63.0151 84.3097 60.4595C91.8051 53.7919 99.1411 42.8098 104.716 33.1564C107.469 28.3901 109.731 24.0587 111.303 20.9204C112.088 19.3526 112.7 18.0861 113.113 17.2162C113.319 16.7813 113.476 16.4458 113.58 16.2216C113.632 16.1095 113.671 16.0252 113.696 15.9703L113.724 15.9102L113.731 15.8952L115.565 11.8539Z" fill="#8F8585"/>
<rect x="36.6003" y="75.8434" width="31.6283" height="13.1687" rx="6" transform="rotate(35.4184 36.6003 75.8434)" fill="#A5A8AD"/>
<rect x="47.1352" y="66.6253" width="24.2353" height="10.0906" rx="5.04528" transform="rotate(35.4184 47.1352 66.6253)" fill="#A5A8AD"/>
<path d="M66.2723 68.58C66.455 68.5935 66.6407 68.6006 66.83 68.6006C68.8842 68.6006 70.4632 67.9958 71.9775 67.4157C73.3723 66.8814 74.7122 66.3682 76.3177 66.3682C79.2847 66.3682 83.0249 65.0481 85.8331 64.057C87.2507 63.5567 88.4308 63.1401 89.1541 63.0196C89.5368 62.6952 89.9259 62.3669 90.3196 62.0348C97.3714 56.0864 105.897 48.8947 105.897 39.8754C105.897 21.2368 88.6561 10 67.3881 10C67.0149 10 66.643 10.0035 66.2723 10.0104C65.9017 10.0035 65.5297 10 65.1565 10C43.8886 10 26.6475 21.2368 26.6475 39.8754C26.6475 48.8947 35.1732 56.0864 42.225 62.0348C42.6187 62.3669 43.0078 62.6952 43.3906 63.0196C44.1138 63.1401 45.2939 63.5566 46.7115 64.057C49.5197 65.0481 53.2599 66.3682 56.2269 66.3682C57.8325 66.3682 59.1723 66.8814 60.5672 67.4157C62.0814 67.9958 63.6604 68.6006 65.7146 68.6006C65.9039 68.6006 66.0896 68.5935 66.2723 68.58Z" fill="#A5A8AD"/>
<circle cx="48.9725" cy="44.0451" r="20.0916" fill="#C4C4C4"/>
<circle cx="48.9725" cy="44.0443" r="16.743" fill="#E7C5C1"/>
<circle cx="48.9725" cy="44.0441" r="13.3944" fill="#6FBF4A"/>
<circle cx="48.9724" cy="44.0443" r="10.0458" fill="#222529"/>
<circle cx="54.5539" cy="36.2309" r="2.2324" fill="white"/>
<circle cx="85.8053" cy="44.0439" r="20.0916" fill="#C4C4C4"/>
<circle cx="85.8055" cy="44.0441" r="16.743" fill="#E7C5C1"/>
<path d="M63.6616 54.0234C63.5645 52.8573 64.4847 51.8573 65.6547 51.8573H69.121C70.291 51.8573 71.2112 52.8573 71.114 54.0234L70.7365 58.5545H64.0392L63.6616 54.0234Z" fill="#C4C4C4"/>
<circle cx="85.8056" cy="44.0439" r="13.3944" fill="#6FBF4A"/>
<circle cx="85.8064" cy="44.0441" r="10.0458" fill="#222529"/>
<circle cx="91.388" cy="36.2307" r="2.2324" fill="white"/>
<path d="M69.3858 61.2584C68.5631 62.9038 66.2151 62.9038 65.3924 61.2584L64.0405 58.5546L70.7377 58.5546L69.3858 61.2584Z" fill="#E7C5C1"/>
<path d="M36.8736 13.9067C39.5666 16.057 41.1597 18.3715 41.1597 18.3715C41.1597 18.3715 39.241 19.9493 37.8111 21.162C36.4006 22.3582 33.525 26.1849 33.525 26.1849C33.525 26.1849 32.4088 25.0687 29.0602 20.6039C25.7116 16.1391 26.8278 10.5581 26.8278 10.5581C26.8278 10.5581 33.642 11.3265 36.8736 13.9067Z" fill="#E7C5C1"/>
<path d="M96.7906 13.9067C94.0976 16.057 92.5046 18.3715 92.5046 18.3715C92.5046 18.3715 94.4233 19.9493 95.8532 21.162C97.2636 22.3582 100.139 26.1849 100.139 26.1849C100.139 26.1849 101.255 25.0687 104.604 20.6039C107.953 16.1391 106.836 10.5581 106.836 10.5581C106.836 10.5581 100.022 11.3265 96.7906 13.9067Z" fill="#E7C5C1"/>
<rect x="69.2904" y="82.6048" width="1.3647" height="8.18821" rx="0.682351" transform="rotate(110.076 69.2904 82.6048)" fill="#E7C5C1"/>
<rect x="68.6653" y="84.3138" width="1.3647" height="8.18821" rx="0.682351" transform="rotate(110.076 68.6653 84.3138)" fill="#E7C5C1"/>
<rect x="68.0402" y="86.0229" width="1.3647" height="8.18821" rx="0.682351" transform="rotate(110.076 68.0402 86.0229)" fill="#E7C5C1"/>
<rect x="67.4152" y="87.732" width="1.3647" height="8.18821" rx="0.682351" transform="rotate(110.076 67.4152 87.732)" fill="#E7C5C1"/>
<rect x="65.0595" y="96.986" width="1.72697" height="10.3618" rx="0.863483" transform="rotate(110.076 65.0595 96.986)" fill="#E7C5C1"/>
<rect x="64.2668" y="99.1489" width="1.72697" height="10.3618" rx="0.863483" transform="rotate(110.076 64.2668 99.1489)" fill="#E7C5C1"/>
<rect x="63.4772" y="101.312" width="1.72697" height="10.3618" rx="0.863483" transform="rotate(110.076 63.4772 101.312)" fill="#E7C5C1"/>
<rect x="62.6876" y="103.474" width="1.72697" height="10.3618" rx="0.863483" transform="rotate(110.076 62.6876 103.474)" fill="#E7C5C1"/>
<path d="M62.7334 155.339H52.0774L50.0974 160.235H42.8254L53.9494 135.035H60.9694L72.1294 160.235H64.7134L62.7334 155.339ZM60.6454 150.083L57.4054 142.019L54.1654 150.083H60.6454Z" fill="#6FBF4A"/>
<path d="M85.6702 135.035C87.9502 135.035 89.9302 135.419 91.6102 136.187C93.2902 136.931 94.5862 138.011 95.4982 139.427C96.4102 140.819 96.8662 142.463 96.8662 144.359C96.8662 146.255 96.4102 147.899 95.4982 149.291C94.5862 150.683 93.2902 151.763 91.6102 152.531C89.9302 153.275 87.9502 153.647 85.6702 153.647H81.2782V160.235H74.1502V135.035H85.6702ZM85.2382 148.031C86.7022 148.031 87.8062 147.719 88.5502 147.095C89.2942 146.447 89.6662 145.535 89.6662 144.359C89.6662 143.183 89.2942 142.271 88.5502 141.623C87.8062 140.975 86.7022 140.651 85.2382 140.651H81.2782V148.031H85.2382Z" fill="#6FBF4A"/>
<path d="M100.342 135.035H107.47V160.235H100.342V135.035Z" fill="#6FBF4A"/>
<path d="M33.068 194.127C30.596 194.127 28.364 193.575 26.372 192.471C24.404 191.367 22.844 189.843 21.692 187.899C20.564 185.955 20 183.771 20 181.347C20 178.923 20.564 176.739 21.692 174.795C22.844 172.851 24.404 171.327 26.372 170.223C28.364 169.119 30.596 168.567 33.068 168.567C34.892 168.567 36.572 168.867 38.108 169.467C39.644 170.043 40.952 170.907 42.032 172.059L40.88 173.247C38.864 171.255 36.284 170.259 33.14 170.259C31.028 170.259 29.108 170.739 27.38 171.699C25.652 172.659 24.296 173.991 23.312 175.695C22.328 177.375 21.836 179.259 21.836 181.347C21.836 183.435 22.328 185.331 23.312 187.035C24.296 188.715 25.652 190.035 27.38 190.995C29.108 191.955 31.028 192.435 33.14 192.435C36.26 192.435 38.84 191.427 40.88 189.411L42.032 190.599C40.952 191.751 39.632 192.627 38.072 193.227C36.536 193.827 34.868 194.127 33.068 194.127Z" fill="#222529"/>
<path d="M47.6055 167.235H49.4055V193.947H47.6055V167.235Z" fill="#222529"/>
<path d="M63.3283 175.011C65.6563 175.011 67.4443 175.611 68.6923 176.811C69.9403 177.987 70.5643 179.727 70.5643 182.031V193.947H68.8363V190.599C68.2363 191.703 67.3603 192.567 66.2083 193.191C65.0563 193.791 63.6763 194.091 62.0683 194.091C59.9803 194.091 58.3243 193.599 57.1003 192.615C55.9003 191.631 55.3003 190.335 55.3003 188.727C55.3003 187.167 55.8522 185.907 56.9562 184.947C58.0842 183.963 59.8723 183.471 62.3203 183.471H68.7643V181.959C68.7643 180.207 68.2842 178.875 67.3242 177.963C66.3882 177.051 65.0082 176.595 63.1842 176.595C61.9362 176.595 60.7363 176.811 59.5843 177.243C58.4563 177.675 57.4963 178.251 56.7043 178.971L55.8042 177.675C56.7402 176.835 57.8683 176.187 59.1883 175.731C60.5083 175.251 61.8883 175.011 63.3283 175.011ZM62.3203 192.615C63.8803 192.615 65.2003 192.255 66.2803 191.535C67.3843 190.815 68.2123 189.771 68.7643 188.403V184.875H62.3563C60.5083 184.875 59.1642 185.211 58.3242 185.883C57.5082 186.555 57.1003 187.479 57.1003 188.655C57.1003 189.879 57.5563 190.851 58.4683 191.571C59.3803 192.267 60.6643 192.615 62.3203 192.615Z" fill="#222529"/>
<path d="M79.7085 179.259C80.2845 177.891 81.1845 176.847 82.4085 176.127C83.6325 175.383 85.1205 175.011 86.8725 175.011V176.775L86.4405 176.739C84.3525 176.739 82.7205 177.399 81.5445 178.719C80.3685 180.015 79.7805 181.827 79.7805 184.155V193.947H77.9805V175.155H79.7085V179.259Z" fill="#222529"/>
<path d="M91.8321 175.155H93.6321V193.947H91.8321V175.155ZM92.7321 170.583C92.3241 170.583 91.9761 170.451 91.6881 170.187C91.4001 169.899 91.2561 169.551 91.2561 169.143C91.2561 168.735 91.4001 168.387 91.6881 168.099C91.9761 167.811 92.3241 167.667 92.7321 167.667C93.1401 167.667 93.4881 167.811 93.7761 168.099C94.0641 168.363 94.2081 168.699 94.2081 169.107C94.2081 169.515 94.0641 169.863 93.7761 170.151C93.4881 170.439 93.1401 170.583 92.7321 170.583Z" fill="#222529"/>
<path d="M110.543 192.759C110.087 193.191 109.511 193.527 108.815 193.767C108.143 193.983 107.435 194.091 106.691 194.091C105.059 194.091 103.799 193.647 102.911 192.759C102.023 191.847 101.579 190.587 101.579 188.979V176.703H98.1228V175.155H101.579V171.051H103.379V175.155H109.355V176.703H103.379V188.799C103.379 190.023 103.667 190.959 104.243 191.607C104.843 192.231 105.719 192.543 106.871 192.543C108.047 192.543 109.019 192.195 109.787 191.499L110.543 192.759Z" fill="#222529"/>
<path d="M130.295 175.155L120.647 196.503C119.927 198.159 119.087 199.335 118.127 200.031C117.191 200.727 116.075 201.075 114.779 201.075C113.915 201.075 113.099 200.931 112.331 200.643C111.587 200.355 110.951 199.935 110.423 199.383L111.323 198.015C112.283 198.999 113.447 199.491 114.815 199.491C115.727 199.491 116.507 199.239 117.155 198.735C117.803 198.231 118.403 197.367 118.955 196.143L119.963 193.875L111.503 175.155H113.411L120.935 191.967L128.459 175.155H130.295Z" fill="#222529"/>
</svg>
